<svg xmlns="http://www.w3.org/2000/svg" version="1.1" xmlns:xlink="http://www.w3.org/1999/xlink" xmlns:svgjs="http://svgjs.dev/svgjs" width="1440" height="560" preserveAspectRatio="none" viewBox="0 0 1440 560"><g mask="url(&quot;#SvgjsMask1093&quot;)" fill="none"><rect width="1440" height="560" x="0" y="0" fill="url(&quot;#SvgjsLinearGradient1094&quot;)"></rect><path d="M1287 450L1286 647" stroke-width="6" stroke="url(&quot;#SvgjsLinearGradient1095&quot;)" stroke-linecap="round" class="Up"></path><path d="M1159 252L1158 447" stroke-width="6" stroke="url(&quot;#SvgjsLinearGradient1095&quot;)" stroke-linecap="round" class="Up"></path><path d="M272 350L271 185" stroke-width="8" stroke="url(&quot;#SvgjsLinearGradient1096&quot;)" stroke-linecap="round" class="Down"></path><path d="M1383 379L1382 677" stroke-width="8" stroke="url(&quot;#SvgjsLinearGradient1096&quot;)" stroke-linecap="round" class="Down"></path><path d="M204 284L203 461" stroke-width="10" stroke="url(&quot;#SvgjsLinearGradient1096&quot;)" stroke-linecap="round" class="Down"></path><path d="M579 468L578 84" stroke-width="10" stroke="url(&quot;#SvgjsLinearGradient1095&quot;)" stroke-linecap="round" class="Up"></path><path d="M864 100L863 -172" stroke-width="8" stroke="url(&quot;#SvgjsLinearGradient1096&quot;)" stroke-linecap="round" class="Down"></path><path d="M1352 418L1351 562" stroke-width="6" stroke="url(&quot;#SvgjsLinearGradient1095&quot;)" stroke-linecap="round" class="Up"></path><path d="M263 491L262 835" stroke-width="6" stroke="url(&quot;#SvgjsLinearGradient1096&quot;)" stroke-linecap="round" class="Down"></path><path d="M1249 405L1248 807" stroke-width="6" stroke="url(&quot;#SvgjsLinearGradient1096&quot;)" stroke-linecap="round" class="Down"></path><path d="M237 108L236 460" stroke-width="10" stroke="url(&quot;#SvgjsLinearGradient1096&quot;)" stroke-linecap="round" class="Down"></path><path d="M894 360L893 166" stroke-width="10" stroke="url(&quot;#SvgjsLinearGradient1095&quot;)" stroke-linecap="round" class="Up"></path><path d="M314 472L313 806" stroke-width="10" stroke="url(&quot;#SvgjsLinearGradient1096&quot;)" stroke-linecap="round" class="Down"></path><path d="M170 353L169 721" stroke-width="6" stroke="url(&quot;#SvgjsLinearGradient1095&quot;)" stroke-linecap="round" class="Up"></path><path d="M371 79L370 -79" stroke-width="10" stroke="url(&quot;#SvgjsLinearGradient1096&quot;)" stroke-linecap="round" class="Down"></path><path d="M612 360L611 -59" stroke-width="8" stroke="url(&quot;#SvgjsLinearGradient1095&quot;)" stroke-linecap="round" class="Up"></path><path d="M687 128L686 304" stroke-width="6" stroke="url(&quot;#SvgjsLinearGradient1095&quot;)" stroke-linecap="round" class="Up"></path><path d="M564 517L563 923" stroke-width="6" stroke="url(&quot;#SvgjsLinearGradient1096&quot;)" stroke-linecap="round" class="Down"></path><path d="M859 122L858 -152" stroke-width="8" stroke="url(&quot;#SvgjsLinearGradient1096&quot;)" stroke-linecap="round" class="Down"></path><path d="M402 11L401 271" stroke-width="8" stroke="url(&quot;#SvgjsLinearGradient1095&quot;)" stroke-linecap="round" class="Up"></path><path d="M170 383L169 210" stroke-width="10" stroke="url(&quot;#SvgjsLinearGradient1095&quot;)" stroke-linecap="round" class="Up"></path><path d="M30 321L29 163" stroke-width="10" stroke="url(&quot;#SvgjsLinearGradient1096&quot;)" stroke-linecap="round" class="Down"></path><path d="M1268 220L1267 15" stroke-width="6" stroke="url(&quot;#SvgjsLinearGradient1096&quot;)" stroke-linecap="round" class="Down"></path><path d="M594 369L593 623" stroke-width="8" stroke="url(&quot;#SvgjsLinearGradient1095&quot;)" stroke-linecap="round" class="Up"></path><path d="M778 2L777 184" stroke-width="10" stroke="url(&quot;#SvgjsLinearGradient1095&quot;)" stroke-linecap="round" class="Up"></path><path d="M427 434L426 200" stroke-width="8" stroke="url(&quot;#SvgjsLinearGradient1096&quot;)" stroke-linecap="round" class="Down"></path><path d="M1319 429L1318 590" stroke-width="6" stroke="url(&quot;#SvgjsLinearGradient1095&quot;)" stroke-linecap="round" class="Up"></path><path d="M638 427L637 92" stroke-width="8" stroke="url(&quot;#SvgjsLinearGradient1096&quot;)" stroke-linecap="round" class="Down"></path><path d="M656 374L655 751" stroke-width="6" stroke="url(&quot;#SvgjsLinearGradient1096&quot;)" stroke-linecap="round" class="Down"></path><path d="M916 202L915 -69" stroke-width="8" stroke="url(&quot;#SvgjsLinearGradient1095&quot;)" stroke-linecap="round" class="Up"></path><path d="M494 557L493 204" stroke-width="10" stroke="url(&quot;#SvgjsLinearGradient1095&quot;)" stroke-linecap="round" class="Up"></path><path d="M600 366L599 -11" stroke-width="6" stroke="url(&quot;#SvgjsLinearGradient1095&quot;)" stroke-linecap="round" class="Up"></path><path d="M1234 332L1233 118" stroke-width="10" stroke="url(&quot;#SvgjsLinearGradient1096&quot;)" stroke-linecap="round" class="Down"></path><path d="M330 185L329 -123" stroke-width="6" stroke="url(&quot;#SvgjsLinearGradient1096&quot;)" stroke-linecap="round" class="Down"></path><path d="M369 62L368 -345" stroke-width="10" stroke="url(&quot;#SvgjsLinearGradient1096&quot;)" stroke-linecap="round" class="Down"></path><path d="M867 248L866 535" stroke-width="8" stroke="url(&quot;#SvgjsLinearGradient1096&quot;)" stroke-linecap="round" class="Down"></path></g><defs><mask id="SvgjsMask1093"><rect width="1440" height="560" fill="#ffffff"></rect></mask><linearGradient x1="15.28%" y1="139.29%" x2="84.72%" y2="-39.29%" gradientUnits="userSpaceOnUse" id="SvgjsLinearGradient1094"><stop stop-color="#0e2a47" offset="0"></stop><stop stop-color="rgba(70, 193, 204, 1)" offset="1"></stop></linearGradient><linearGradient x1="0%" y1="100%" x2="0%" y2="0%" id="SvgjsLinearGradient1095"><stop stop-color="rgba(137, 191, 245, 0)" offset="0"></stop><stop stop-color="rgba(137, 191, 245, 1)" offset="1"></stop></linearGradient><linearGradient x1="0%" y1="0%" x2="0%" y2="100%" id="SvgjsLinearGradient1096"><stop stop-color="rgba(137, 191, 245, 0)" offset="0"></stop><stop stop-color="rgba(137, 191, 245, 1)" offset="1"></stop></linearGradient></defs></svg>